<svg xmlns="http://www.w3.org/2000/svg" viewBox="0 0 800 400">
  <style>
    text { font-family: 'IBM Plex Mono', monospace; }
    text, .stroke-main { fill: #1a1a1a; stroke: #1a1a1a; }
    text { stroke-width: 0; }
  </style>
  <defs>
    <marker id="aAmber" markerWidth="9" markerHeight="9" refX="6" refY="3" orient="auto"><path d="M0,0 L6,3 L0,6 Z" fill="#f59e0b"></path></marker>
    <marker id="aIndigo" markerWidth="9" markerHeight="9" refX="6" refY="3" orient="auto"><path d="M0,0 L6,3 L0,6 Z" fill="#6366f1"></path></marker>
    <marker id="aMain" markerWidth="9" markerHeight="9" refX="6" refY="3" orient="auto"><path d="M0,0 L6,3 L0,6 Z" class="stroke-main" stroke-width="0"></path></marker>
  </defs>

  
  <rect x="0" y="0" width="800" height="400" rx="2" fill="#faf9f6"></rect>

  <line x1="400" y1="28" x2="400" y2="372" class="stroke-main" stroke-width="1" style="fill:none"></line>

  
  <text x="200" y="34" text-anchor="middle" font-size="15" font-weight="700">pass everything</text>
  <text x="200" y="54" text-anchor="middle" font-size="11">cost xN, signal down</text>

  
  <rect x="40" y="120" width="74" height="38" rx="2" stroke="#6366f1" stroke-width="2" fill="none"></rect>
  <text x="77" y="143" text-anchor="middle" font-size="12">Agent</text>
  <rect x="163" y="120" width="74" height="38" rx="2" stroke="#6366f1" stroke-width="2" fill="none"></rect>
  <text x="200" y="143" text-anchor="middle" font-size="12">Agent</text>
  <rect x="286" y="120" width="74" height="38" rx="2" stroke="#6366f1" stroke-width="2" fill="none"></rect>
  <text x="323" y="143" text-anchor="middle" font-size="12">Agent</text>

  
  <line x1="114" y1="139" x2="161" y2="139" class="stroke-main" stroke-width="2" style="fill:none" marker-end="url(#aMain)"></line>
  <line x1="237" y1="139" x2="284" y2="139" class="stroke-main" stroke-width="5" style="fill:none" marker-end="url(#aMain)"></line>

  
  
  <rect x="118" y="196" width="40" height="18" class="stroke-main" stroke-width="1" style="fill:none"></rect>
  <rect x="148" y="196" width="10" height="18" fill="#f59e0b"></rect>
  
  <rect x="241" y="196" width="118" height="18" class="stroke-main" stroke-width="1" style="fill:none"></rect>
  <rect x="296" y="196" width="10" height="18" fill="#f59e0b"></rect>
  <line x1="301" y1="222" x2="301" y2="246" class="stroke-main" stroke-width="1" style="fill:none"></line>
  <text x="301" y="262" text-anchor="middle" font-size="12">buried</text>

  <text x="200" y="358" text-anchor="middle" font-size="11">payload grows each step</text>

  
  <text x="600" y="34" text-anchor="middle" font-size="15" font-weight="700">budget per handoff</text>
  <text x="600" y="54" text-anchor="middle" font-size="11">bounded, signal kept</text>

  
  <rect x="552" y="76" width="96" height="30" rx="2" stroke="#f59e0b" stroke-width="2" fill="none"></rect>
  <text x="600" y="96" text-anchor="middle" font-size="12">Human</text>
  <line x1="600" y1="106" x2="600" y2="118" stroke="#f59e0b" stroke-width="2" fill="none" marker-end="url(#aAmber)"></line>
  <text x="600" y="68" text-anchor="middle" font-size="11">sets budget</text>

  
  <rect x="440" y="120" width="74" height="38" rx="2" stroke="#6366f1" stroke-width="2" fill="none"></rect>
  <text x="477" y="143" text-anchor="middle" font-size="12">Agent</text>
  <rect x="563" y="120" width="74" height="38" rx="2" stroke="#6366f1" stroke-width="2" fill="none"></rect>
  <text x="600" y="143" text-anchor="middle" font-size="12">Agent</text>
  <rect x="686" y="120" width="74" height="38" rx="2" stroke="#6366f1" stroke-width="2" fill="none"></rect>
  <text x="723" y="143" text-anchor="middle" font-size="12">Agent</text>

  
  <line x1="514" y1="139" x2="561" y2="139" class="stroke-main" stroke-width="1" style="fill:none" marker-end="url(#aMain)"></line>
  <line x1="637" y1="139" x2="684" y2="139" class="stroke-main" stroke-width="1" style="fill:none" marker-end="url(#aMain)"></line>

  
  <rect x="497" y="196" width="44" height="18" class="stroke-main" stroke-width="1" style="fill:none"></rect>
  <rect x="497" y="196" width="10" height="18" fill="#f59e0b"></rect>
  <rect x="620" y="196" width="44" height="18" class="stroke-main" stroke-width="1" style="fill:none"></rect>
  <rect x="620" y="196" width="10" height="18" fill="#f59e0b"></rect>
  <line x1="502" y1="222" x2="502" y2="246" class="stroke-main" stroke-width="1" style="fill:none"></line>
  <text x="502" y="262" text-anchor="middle" font-size="12">at edge</text>

  <text x="600" y="358" text-anchor="middle" font-size="11">payload stays bounded</text>
</svg>
