<svg xmlns="http://www.w3.org/2000/svg" viewBox="0 0 800 400">
  <style>
    text { font-family: 'IBM Plex Mono', monospace; }
    text, .stroke-main { fill: #1a1a1a; stroke: #1a1a1a; }
    text { stroke-width: 0; }
  </style>
  <defs>
    <marker id="aAmber" markerWidth="9" markerHeight="9" refX="6" refY="3" orient="auto"><path d="M0,0 L6,3 L0,6 Z" fill="#f59e0b"></path></marker>
    <marker id="aIndigo" markerWidth="9" markerHeight="9" refX="6" refY="3" orient="auto"><path d="M0,0 L6,3 L0,6 Z" fill="#6366f1"></path></marker>
    <marker id="aMain" markerWidth="9" markerHeight="9" refX="6" refY="3" orient="auto"><path d="M0,0 L6,3 L0,6 Z" class="stroke-main" stroke-width="0"></path></marker>
  </defs>

  
  <rect x="0" y="0" width="800" height="400" rx="2" fill="#faf9f6"></rect>

  <text x="400" y="34" text-anchor="middle" font-size="13" font-weight="700">independent readers — no cross-reading</text>

  
  <rect x="40" y="178" width="100" height="44" rx="2" class="stroke-main" stroke-width="2" style="fill:none"></rect>
  <text x="90" y="205" text-anchor="middle" font-size="13">draft</text>

  
  <rect x="320" y="68" width="110" height="44" rx="2" stroke="#6366f1" stroke-width="2" fill="none"></rect>
  <text x="375" y="95" text-anchor="middle" font-size="13">Agent</text>

  <rect x="320" y="178" width="110" height="44" rx="2" stroke="#6366f1" stroke-width="2" fill="none"></rect>
  <text x="375" y="205" text-anchor="middle" font-size="13">Agent</text>

  
  <rect x="320" y="288" width="110" height="44" rx="2" stroke="#6366f1" stroke-width="2" stroke-dasharray="4,4" fill="none"></rect>
  <text x="375" y="315" text-anchor="middle" font-size="13">Agent</text>
  <text x="375" y="356" text-anchor="middle" font-size="11">adversarial seat</text>

  
  <line x1="140" y1="192" x2="316" y2="98" stroke="#6366f1" stroke-width="2" fill="none" marker-end="url(#aIndigo)"></line>
  <line x1="140" y1="200" x2="316" y2="200" stroke="#6366f1" stroke-width="2" fill="none" marker-end="url(#aIndigo)"></line>
  <line x1="140" y1="208" x2="316" y2="302" stroke="#6366f1" stroke-width="2" stroke-dasharray="4,4" fill="none" marker-end="url(#aIndigo)"></line>

  
  <rect x="628" y="178" width="120" height="44" rx="2" stroke="#f59e0b" stroke-width="2" fill="none"></rect>
  <text x="688" y="205" text-anchor="middle" font-size="13">Human</text>
  <text x="688" y="158" text-anchor="middle" font-size="11">verdict held by human</text>

  
  <line x1="430" y1="90" x2="624" y2="186" stroke="#6366f1" stroke-width="2" fill="none" marker-end="url(#aIndigo)"></line>
  <line x1="430" y1="200" x2="624" y2="200" stroke="#6366f1" stroke-width="2" fill="none" marker-end="url(#aIndigo)"></line>
  <line x1="430" y1="310" x2="624" y2="214" stroke="#6366f1" stroke-width="2" stroke-dasharray="4,4" fill="none" marker-end="url(#aIndigo)"></line>

  
  <line x1="520" y1="282" x2="540" y2="302" class="stroke-main" stroke-width="1" style="fill:none"></line>
  <line x1="540" y1="282" x2="520" y2="302" class="stroke-main" stroke-width="1" style="fill:none"></line>
  <text x="530" y="324" text-anchor="middle" font-size="11">no merge</text>
</svg>
