<svg xmlns="http://www.w3.org/2000/svg" viewBox="0 0 800 400">
  <style>
    text { font-family: 'IBM Plex Mono', monospace; }
    text, .stroke-main { fill: #1a1a1a; stroke: #1a1a1a; }
    text { stroke-width: 0; }
  </style>
  <defs>
    <marker id="aMain" markerWidth="9" markerHeight="9" refX="6" refY="3" orient="auto"><path d="M0,0 L6,3 L0,6 Z" class="stroke-main" stroke-width="0"></path></marker>
  </defs>

  
  <rect x="0" y="0" width="800" height="400" rx="2" fill="#faf9f6"></rect>

  <text x="400" y="38" text-anchor="middle" font-size="13" font-weight="700">same window size — different failure</text>

  
  <text x="120" y="82" font-size="11">window full</text>
  <g class="stroke-main" stroke-width="1" style="fill:none">
    <rect x="120" y="90" width="40" height="40"></rect><rect x="160" y="90" width="40" height="40"></rect><rect x="200" y="90" width="40" height="40"></rect><rect x="240" y="90" width="40" height="40"></rect><rect x="280" y="90" width="40" height="40"></rect><rect x="320" y="90" width="40" height="40"></rect><rect x="360" y="90" width="40" height="40"></rect><rect x="400" y="90" width="40" height="40"></rect><rect x="440" y="90" width="40" height="40"></rect><rect x="480" y="90" width="40" height="40"></rect><rect x="520" y="90" width="40" height="40"></rect><rect x="560" y="90" width="40" height="40"></rect><rect x="600" y="90" width="40" height="40"></rect><rect x="640" y="90" width="40" height="40"></rect>
  </g>
  <text x="690" y="116" font-size="11">cost</text>

  
  <text x="120" y="192" font-size="11">window poisoned</text>
  <g class="stroke-main" stroke-width="1" style="fill:none">
    <rect x="120" y="200" width="40" height="40"></rect><rect x="160" y="200" width="40" height="40"></rect><rect x="240" y="200" width="40" height="40"></rect><rect x="280" y="200" width="40" height="40"></rect><rect x="360" y="200" width="40" height="40"></rect><rect x="400" y="200" width="40" height="40"></rect><rect x="440" y="200" width="40" height="40"></rect><rect x="520" y="200" width="40" height="40"></rect><rect x="560" y="200" width="40" height="40"></rect><rect x="600" y="200" width="40" height="40"></rect><rect x="640" y="200" width="40" height="40"></rect>
  </g>
  
  <rect x="200" y="200" width="40" height="40" class="stroke-main" stroke-width="2" style="fill:none" stroke-dasharray="4,4"></rect>
  <rect x="320" y="200" width="40" height="40" class="stroke-main" stroke-width="2" style="fill:none" stroke-dasharray="4,4"></rect>
  <rect x="480" y="200" width="40" height="40" class="stroke-main" stroke-width="2" style="fill:none" stroke-dasharray="4,4"></rect>

  
  <text x="120" y="312" font-size="11">next session</text>
  <rect x="120" y="320" width="40" height="40" class="stroke-main" stroke-width="1" style="fill:none"></rect>
  <rect x="160" y="320" width="40" height="40" class="stroke-main" stroke-width="2" style="fill:none" stroke-dasharray="4,4"></rect>
  <rect x="200" y="320" width="40" height="40" class="stroke-main" stroke-width="1" style="fill:none"></rect>
  <path d="M220,243 C150,275 150,295 175,318" class="stroke-main" stroke-width="1" style="fill:none" marker-end="url(#aMain)"></path>
  <text x="300" y="345" font-size="11">re-served as fact</text>
</svg>
